<?xml version="1.0" encoding="UTF-8" standalone="no"?>
<svg viewBox="0 0 2955 780"
     clip="0 2955 780 0"
     preserveAspectRatio="xMidYMid meet"
     version="1.1"
     baseProfile="full"
     xmlns="http://www.w3.org/2000/svg"
     xmlns:xlink="http://www.w3.org/1999/xlink"
     xmlns:ev="http://www.w3.org/2001/xml-events"
     xml:space="preserve">
<title>arty_scope_freq_mux</title>
<desc>Nlview schematic (SVG)</desc>
<clipPath id="clippingbbox">
<rect x="0" y="0" width="2955" height="780" />
</clipPath>
<g stroke="#19b400"
   stroke-width="1"
   stroke-linecap="butt"
   stroke-linejoin="miter"
   stroke-miterlimit="4"
   stroke-dasharray="none"
   stroke-dashoffset="0"
   fill="none"
   font-family="Helvetica"
   font-style="normal"
   font-size="12"
   writing-mode="lr-tb"
   cursor="crosshair"
   clip-path="url(#clippingbbox)">
<path d="M0 0h2954v781h-2954z" stroke="none" fill="white" />
<g stroke="black">
<path d="M132 150l-7 7h-14v-14h14z" />
<text x="107" y="150" fill="black" stroke-width="0" text-anchor="end" dy="3.85">clk_in_12mhz</text>
<path d="M132 490l-7 7h-14v-14h14z" />
<text x="107" y="490" fill="black" stroke-width="0" text-anchor="end" dy="3.85">rst_n</text>
<path d="M132 570l-7 7h-14v-14h14z" />
<text x="107" y="570" fill="black" stroke-width="0" text-anchor="end" dy="3.85">raw_ring_sig</text>
<path d="M172 490v-12l30 12l-30 12z" stroke="none" fill="#ffffcc" />
<path d="M172 490v-12l30 12l-30 12z" />
<text x="174" y="476" fill="black" stroke-width="0">rst_n_IBUF_inst</text>
<text x="174" y="504" fill="black" stroke-width="0" dy="7.7">IBUF</text>
<path d="M212 490h-10" />
<text x="204" y="489" fill="black" stroke-width="0" font-size="10">O</text>
<path d="M162 490h10" />
<text x="170" y="489" fill="black" stroke-width="0" font-size="10" text-anchor="end">I</text>
<path d="M342 80v-12l30 12l-30 12z" stroke="none" fill="#ffffcc" />
<path d="M342 80v-12l30 12l-30 12z" />
<text x="344" y="66" fill="black" stroke-width="0">bufg_fb</text>
<text x="344" y="94" fill="black" stroke-width="0" dy="7.7">BUFG</text>
<path d="M382 80h-10" />
<text x="374" y="79" fill="black" stroke-width="0" font-size="10">O</text>
<path d="M332 80h10" />
<text x="340" y="79" fill="black" stroke-width="0" font-size="10" text-anchor="end">I</text>
<path d="M342 150v-12l30 12l-30 12z" stroke="none" fill="#ffffcc" />
<path d="M342 150v-12l30 12l-30 12z" />
<text x="344" y="136" fill="black" stroke-width="0">clk_in_12mhz_IBUF_inst</text>
<text x="344" y="164" fill="black" stroke-width="0" dy="7.7">IBUF</text>
<path d="M382 150h-10" />
<text x="374" y="149" fill="black" stroke-width="0" font-size="10">O</text>
<path d="M332 150h10" />
<text x="340" y="149" fill="black" stroke-width="0" font-size="10" text-anchor="end">I</text>
<path d="M342 480h60v20h-60z" stroke="none" fill="#ffffcc" />
<path d="M342 480h60v20h-60z" />
<text x="372" y="478" fill="black" stroke-width="0" text-anchor="middle">u_mmcm_i_1</text>
<text x="372" y="502" fill="black" stroke-width="0" text-anchor="middle" dy="7.7">LUT1</text>
<path d="M412 490h-10" />
<text x="400" y="490" fill="black" stroke-width="0" font-size="10" text-anchor="end" dy="3.25">O</text>
<path d="M332 490h10" />
<text x="344" y="490" fill="black" stroke-width="0" font-size="10" dy="3.25">I0</text>
<path d="M572 30v-4" />
<path d="M564 26h16" />
<path d="M602 60h160v380h-160z" stroke="none" fill="#ffffcc" />
<path d="M602 60h160v380h-160z" />
<text x="682" y="58" fill="black" stroke-width="0" text-anchor="middle">u_mmcm</text>
<text x="682" y="442" fill="black" stroke-width="0" text-anchor="middle" dy="7.7">MMCME2_ADV</text>
<path d="M772 70h-10" />
<text x="760" y="70" fill="black" stroke-width="0" font-size="10" text-anchor="end" dy="3.25">CLKFBOUT</text>
<path d="M772 90h-10" />
<text x="760" y="90" fill="black" stroke-width="0" font-size="10" text-anchor="end" dy="3.25">CLKFBOUTB</text>
<text x="764" y="89" fill="black" stroke-width="0" font-size="8">n/c</text>
<path d="M772 110h-10" />
<text x="760" y="110" fill="black" stroke-width="0" font-size="10" text-anchor="end" dy="3.25">CLKFBSTOPPED</text>
<text x="764" y="109" fill="black" stroke-width="0" font-size="8">n/c</text>
<path d="M772 130h-10" />
<text x="760" y="130" fill="black" stroke-width="0" font-size="10" text-anchor="end" dy="3.25">CLKINSTOPPED</text>
<text x="764" y="129" fill="black" stroke-width="0" font-size="8">n/c</text>
<path d="M772 150h-10" />
<text x="760" y="150" fill="black" stroke-width="0" font-size="10" text-anchor="end" dy="3.25">CLKOUT0</text>
<path d="M772 170h-10" />
<text x="760" y="170" fill="black" stroke-width="0" font-size="10" text-anchor="end" dy="3.25">CLKOUT0B</text>
<text x="764" y="169" fill="black" stroke-width="0" font-size="8">n/c</text>
<path d="M772 190h-10" />
<text x="760" y="190" fill="black" stroke-width="0" font-size="10" text-anchor="end" dy="3.25">CLKOUT1</text>
<text x="764" y="189" fill="black" stroke-width="0" font-size="8">n/c</text>
<path d="M772 210h-10" />
<text x="760" y="210" fill="black" stroke-width="0" font-size="10" text-anchor="end" dy="3.25">CLKOUT1B</text>
<text x="764" y="209" fill="black" stroke-width="0" font-size="8">n/c</text>
<path d="M772 230h-10" />
<text x="760" y="230" fill="black" stroke-width="0" font-size="10" text-anchor="end" dy="3.25">CLKOUT2</text>
<text x="764" y="229" fill="black" stroke-width="0" font-size="8">n/c</text>
<path d="M772 250h-10" />
<text x="760" y="250" fill="black" stroke-width="0" font-size="10" text-anchor="end" dy="3.25">CLKOUT2B</text>
<text x="764" y="249" fill="black" stroke-width="0" font-size="8">n/c</text>
<path d="M772 270h-10" />
<text x="760" y="270" fill="black" stroke-width="0" font-size="10" text-anchor="end" dy="3.25">CLKOUT3</text>
<text x="764" y="269" fill="black" stroke-width="0" font-size="8">n/c</text>
<path d="M772 290h-10" />
<text x="760" y="290" fill="black" stroke-width="0" font-size="10" text-anchor="end" dy="3.25">CLKOUT3B</text>
<text x="764" y="289" fill="black" stroke-width="0" font-size="8">n/c</text>
<path d="M772 310h-10" />
<text x="760" y="310" fill="black" stroke-width="0" font-size="10" text-anchor="end" dy="3.25">CLKOUT4</text>
<text x="764" y="309" fill="black" stroke-width="0" font-size="8">n/c</text>
<path d="M772 330h-10" />
<text x="760" y="330" fill="black" stroke-width="0" font-size="10" text-anchor="end" dy="3.25">CLKOUT5</text>
<text x="764" y="329" fill="black" stroke-width="0" font-size="8">n/c</text>
<path d="M772 350h-10" />
<text x="760" y="350" fill="black" stroke-width="0" font-size="10" text-anchor="end" dy="3.25">CLKOUT6</text>
<text x="764" y="349" fill="black" stroke-width="0" font-size="8">n/c</text>
<path d="M772 390h-10" />
<text x="760" y="390" fill="black" stroke-width="0" font-size="10" text-anchor="end" dy="3.25">DRDY</text>
<text x="764" y="389" fill="black" stroke-width="0" font-size="8">n/c</text>
<path d="M772 410h-10" />
<text x="760" y="410" fill="black" stroke-width="0" font-size="10" text-anchor="end" dy="3.25">LOCKED</text>
<path d="M772 430h-10" />
<text x="760" y="430" fill="black" stroke-width="0" font-size="10" text-anchor="end" dy="3.25">PSDONE</text>
<text x="764" y="429" fill="black" stroke-width="0" font-size="8">n/c</text>
<path d="M592 110h10" />
<text x="604" y="110" fill="black" stroke-width="0" font-size="10" dy="3.25">CLKFBIN</text>
<path d="M592 150h10" />
<text x="604" y="150" fill="black" stroke-width="0" font-size="10" dy="3.25">CLKIN1</text>
<path d="M592 170h10" />
<text x="604" y="170" fill="black" stroke-width="0" font-size="10" dy="3.25">CLKIN2</text>
<path d="M592 130h10" />
<text x="604" y="130" fill="black" stroke-width="0" font-size="10" dy="3.25">CLKINSEL</text>
<path d="M592 210h10" />
<text x="604" y="210" fill="black" stroke-width="0" font-size="10" dy="3.25">DCLK</text>
<path d="M592 230h10" />
<text x="604" y="230" fill="black" stroke-width="0" font-size="10" dy="3.25">DEN</text>
<path d="M592 270h10" />
<text x="604" y="270" fill="black" stroke-width="0" font-size="10" dy="3.25">DWE</text>
<path d="M592 290h10" />
<text x="604" y="290" fill="black" stroke-width="0" font-size="10" dy="3.25">PSCLK</text>
<path d="M592 310h10" />
<text x="604" y="310" fill="black" stroke-width="0" font-size="10" dy="3.25">PSEN</text>
<path d="M592 330h10" />
<text x="604" y="330" fill="black" stroke-width="0" font-size="10" dy="3.25">PSINCDEC</text>
<path d="M592 350h10" />
<text x="604" y="350" fill="black" stroke-width="0" font-size="10" dy="3.25">PWRDWN</text>
<path d="M592 370h10" />
<text x="604" y="370" fill="black" stroke-width="0" font-size="10" dy="3.25">RST</text>
</g>
<g stroke="black" stroke-width="3">
<path d="M772 370h-10" />
<text x="760" y="370" fill="black" stroke-width="0" font-size="10" text-anchor="end" dy="3.25">DO[15:0]</text>
<text x="764" y="369" fill="black" stroke-width="0" font-size="8">n/c</text>
<path d="M592 190h10" />
<text x="604" y="190" fill="black" stroke-width="0" font-size="10" dy="3.25">DADDR[6:0]</text>
<path d="M592 250h10" />
<text x="604" y="250" fill="black" stroke-width="0" font-size="10" dy="3.25">DI[15:0]</text>
</g>
<g stroke="black">
<path d="M564 470h16" />
<path d="M567 473h10" />
<path d="M570 476h4" />
<path d="M544 490h16" />
<path d="M547 493h10" />
<path d="M550 496h4" />
<path d="M852 150v-12l30 12l-30 12z" stroke="none" fill="#ffffcc" />
<path d="M852 150v-12l30 12l-30 12z" />
<text x="854" y="136" fill="black" stroke-width="0">bufg_out</text>
<text x="854" y="164" fill="black" stroke-width="0" dy="7.7">BUFG</text>
<path d="M892 150h-10" />
<text x="884" y="149" fill="black" stroke-width="0" font-size="10">O</text>
<path d="M842 150h10" />
<text x="850" y="149" fill="black" stroke-width="0" font-size="10" text-anchor="end">I</text>
<path d="M972 340v-4" />
<path d="M964 336h16" />
<path d="M1012 370h60v100h-60z" stroke="none" fill="#ffffcc" />
<path d="M1012 370h60v100h-60z" />
<path d="M1012 393l7 -3l-7 -3" />
<text x="1042" y="368" fill="black" stroke-width="0" text-anchor="middle">ext_rst_hi_reg</text>
<text x="1042" y="472" fill="black" stroke-width="0" text-anchor="middle" dy="7.7">FDCE</text>
<path d="M1082 420h-10" />
<text x="1070" y="420" fill="black" stroke-width="0" font-size="10" text-anchor="end" dy="3.25">Q</text>
<path d="M1002 390h10" />
<text x="1021" y="390" fill="black" stroke-width="0" font-size="10" dy="3.25">C</text>
<path d="M1002 410h10" />
<text x="1014" y="410" fill="black" stroke-width="0" font-size="10" dy="3.25">CE</text>
<path d="M1002 430h10" />
<text x="1014" y="430" fill="black" stroke-width="0" font-size="10" dy="3.25">CLR</text>
<path d="M1002 450h10" />
<text x="1014" y="450" fill="black" stroke-width="0" font-size="10" dy="3.25">D</text>
<path d="M1132 310v-4" />
<path d="M1124 306h16" />
<path d="M1182 340h60v100h-60z" stroke="none" fill="#ffffcc" />
<path d="M1182 340h60v100h-60z" />
<path d="M1182 363l7 -3l-7 -3" />
<text x="1212" y="338" fill="black" stroke-width="0" text-anchor="middle">ext_rst_ok_reg</text>
<text x="1212" y="442" fill="black" stroke-width="0" text-anchor="middle" dy="7.7">FDCE</text>
<path d="M1252 390h-10" />
<text x="1240" y="390" fill="black" stroke-width="0" font-size="10" text-anchor="end" dy="3.25">Q</text>
<path d="M1172 360h10" />
<text x="1191" y="360" fill="black" stroke-width="0" font-size="10" dy="3.25">C</text>
<path d="M1172 380h10" />
<text x="1184" y="380" fill="black" stroke-width="0" font-size="10" dy="3.25">CE</text>
<path d="M1172 400h10" />
<text x="1184" y="400" fill="black" stroke-width="0" font-size="10" dy="3.25">CLR</text>
<path d="M1172 420h10" />
<text x="1184" y="420" fill="black" stroke-width="0" font-size="10" dy="3.25">D</text>
<path d="M1182 570v-12l30 12l-30 12z" stroke="none" fill="#ffffcc" />
<path d="M1182 570v-12l30 12l-30 12z" />
<text x="1184" y="556" fill="black" stroke-width="0">raw_ring_sig_IBUF_inst</text>
<text x="1184" y="584" fill="black" stroke-width="0" dy="7.7">IBUF</text>
<path d="M1222 570h-10" />
<text x="1214" y="569" fill="black" stroke-width="0" font-size="10">O</text>
<path d="M1172 570h10" />
<text x="1180" y="569" fill="black" stroke-width="0" font-size="10" text-anchor="end">I</text>
<path d="M1412 520h60v60h-60z" stroke="none" fill="#ffffcc" />
<path d="M1412 520h60v60h-60z" />
<text x="1442" y="518" fill="black" stroke-width="0" text-anchor="middle">rraw_a_i_1</text>
<text x="1442" y="582" fill="black" stroke-width="0" text-anchor="middle" dy="7.7">LUT3</text>
<path d="M1482 550h-10" />
<text x="1470" y="550" fill="black" stroke-width="0" font-size="10" text-anchor="end" dy="3.25">O</text>
<path d="M1402 530h10" />
<text x="1414" y="530" fill="black" stroke-width="0" font-size="10" dy="3.25">I0</text>
<path d="M1402 550h10" />
<text x="1414" y="550" fill="black" stroke-width="0" font-size="10" dy="3.25">I1</text>
<path d="M1402 570h10" />
<text x="1414" y="570" fill="black" stroke-width="0" font-size="10" dy="3.25">I2</text>
<path d="M1542 410v-4" />
<path d="M1534 406h16" />
<path d="M1572 440h60v100h-60z" stroke="none" fill="#ffffcc" />
<path d="M1572 440h60v100h-60z" />
<path d="M1572 463l7 -3l-7 -3" />
<text x="1602" y="438" fill="black" stroke-width="0" text-anchor="middle">rraw_a_reg</text>
<text x="1602" y="542" fill="black" stroke-width="0" text-anchor="middle" dy="7.7">FDCE</text>
<path d="M1642 490h-10" />
<text x="1630" y="490" fill="black" stroke-width="0" font-size="10" text-anchor="end" dy="3.25">Q</text>
<path d="M1562 460h10" />
<text x="1581" y="460" fill="black" stroke-width="0" font-size="10" dy="3.25">C</text>
<path d="M1562 480h10" />
<text x="1574" y="480" fill="black" stroke-width="0" font-size="10" dy="3.25">CE</text>
<path d="M1562 500h10" />
<text x="1574" y="500" fill="black" stroke-width="0" font-size="10" dy="3.25">CLR</text>
<path d="M1562 520h10" />
<text x="1574" y="520" fill="black" stroke-width="0" font-size="10" dy="3.25">D</text>
<path d="M1732 480h60v60h-60z" stroke="none" fill="#ffffcc" />
<path d="M1732 480h60v60h-60z" />
<text x="1762" y="478" fill="black" stroke-width="0" text-anchor="middle">rraw_b_i_1</text>
<text x="1762" y="542" fill="black" stroke-width="0" text-anchor="middle" dy="7.7">LUT3</text>
<path d="M1802 510h-10" />
<text x="1790" y="510" fill="black" stroke-width="0" font-size="10" text-anchor="end" dy="3.25">O</text>
<path d="M1722 490h10" />
<text x="1734" y="490" fill="black" stroke-width="0" font-size="10" dy="3.25">I0</text>
<path d="M1722 510h10" />
<text x="1734" y="510" fill="black" stroke-width="0" font-size="10" dy="3.25">I1</text>
<path d="M1722 530h10" />
<text x="1734" y="530" fill="black" stroke-width="0" font-size="10" dy="3.25">I2</text>
<path d="M1842 430v-4" />
<path d="M1834 426h16" />
<path d="M1882 460h60v100h-60z" stroke="none" fill="#ffffcc" />
<path d="M1882 460h60v100h-60z" />
<path d="M1882 483l7 -3l-7 -3" />
<text x="1912" y="458" fill="black" stroke-width="0" text-anchor="middle">rraw_b_reg</text>
<text x="1912" y="562" fill="black" stroke-width="0" text-anchor="middle" dy="7.7">FDCE</text>
<path d="M1952 510h-10" />
<text x="1940" y="510" fill="black" stroke-width="0" font-size="10" text-anchor="end" dy="3.25">Q</text>
<path d="M1872 480h10" />
<text x="1891" y="480" fill="black" stroke-width="0" font-size="10" dy="3.25">C</text>
<path d="M1872 500h10" />
<text x="1884" y="500" fill="black" stroke-width="0" font-size="10" dy="3.25">CE</text>
<path d="M1872 520h10" />
<text x="1884" y="520" fill="black" stroke-width="0" font-size="10" dy="3.25">CLR</text>
<path d="M1872 540h10" />
<text x="1884" y="540" fill="black" stroke-width="0" font-size="10" dy="3.25">D</text>
<path d="M2052 490h60v60h-60z" stroke="none" fill="#ffffcc" />
<path d="M2052 490h60v60h-60z" />
<text x="2082" y="488" fill="black" stroke-width="0" text-anchor="middle">rraw_c_i_1</text>
<text x="2082" y="552" fill="black" stroke-width="0" text-anchor="middle" dy="7.7">LUT3</text>
<path d="M2122 520h-10" />
<text x="2110" y="520" fill="black" stroke-width="0" font-size="10" text-anchor="end" dy="3.25">O</text>
<path d="M2042 500h10" />
<text x="2054" y="500" fill="black" stroke-width="0" font-size="10" dy="3.25">I0</text>
<path d="M2042 520h10" />
<text x="2054" y="520" fill="black" stroke-width="0" font-size="10" dy="3.25">I1</text>
<path d="M2042 540h10" />
<text x="2054" y="540" fill="black" stroke-width="0" font-size="10" dy="3.25">I2</text>
<path d="M2162 410v-4" />
<path d="M2154 406h16" />
<path d="M2192 440h60v100h-60z" stroke="none" fill="#ffffcc" />
<path d="M2192 440h60v100h-60z" />
<path d="M2192 463l7 -3l-7 -3" />
<text x="2222" y="438" fill="black" stroke-width="0" text-anchor="middle">rraw_c_reg</text>
<text x="2222" y="542" fill="black" stroke-width="0" text-anchor="middle" dy="7.7">FDCE</text>
<path d="M2262 490h-10" />
<text x="2250" y="490" fill="black" stroke-width="0" font-size="10" text-anchor="end" dy="3.25">Q</text>
<path d="M2182 460h10" />
<text x="2201" y="460" fill="black" stroke-width="0" font-size="10" dy="3.25">C</text>
<path d="M2182 480h10" />
<text x="2194" y="480" fill="black" stroke-width="0" font-size="10" dy="3.25">CE</text>
<path d="M2182 500h10" />
<text x="2194" y="500" fill="black" stroke-width="0" font-size="10" dy="3.25">CLR</text>
<path d="M2182 520h10" />
<text x="2194" y="520" fill="black" stroke-width="0" font-size="10" dy="3.25">D</text>
<path d="M2342 620h60v60h-60z" stroke="none" fill="#ffffcc" />
<path d="M2342 620h60v60h-60z" />
<text x="2372" y="618" fill="black" stroke-width="0" text-anchor="middle">scope_reg_i_1</text>
<text x="2372" y="682" fill="black" stroke-width="0" text-anchor="middle" dy="7.7">LUT3</text>
<path d="M2412 650h-10" />
<text x="2400" y="650" fill="black" stroke-width="0" font-size="10" text-anchor="end" dy="3.25">O</text>
<path d="M2332 630h10" />
<text x="2344" y="630" fill="black" stroke-width="0" font-size="10" dy="3.25">I0</text>
<path d="M2332 650h10" />
<text x="2344" y="650" fill="black" stroke-width="0" font-size="10" dy="3.25">I1</text>
<path d="M2332 670h10" />
<text x="2344" y="670" fill="black" stroke-width="0" font-size="10" dy="3.25">I2</text>
<path d="M2482 620v-4" />
<path d="M2474 616h16" />
<path d="M2532 650h60v100h-60z" stroke="none" fill="#ffffcc" />
<path d="M2532 650h60v100h-60z" />
<path d="M2532 673l7 -3l-7 -3" />
<text x="2562" y="648" fill="black" stroke-width="0" text-anchor="middle">scope_reg_reg</text>
<text x="2562" y="752" fill="black" stroke-width="0" text-anchor="middle" dy="7.7">FDCE</text>
<path d="M2602 700h-10" />
<text x="2590" y="700" fill="black" stroke-width="0" font-size="10" text-anchor="end" dy="3.25">Q</text>
<path d="M2522 670h10" />
<text x="2541" y="670" fill="black" stroke-width="0" font-size="10" dy="3.25">C</text>
<path d="M2522 690h10" />
<text x="2534" y="690" fill="black" stroke-width="0" font-size="10" dy="3.25">CE</text>
<path d="M2522 710h10" />
<text x="2534" y="710" fill="black" stroke-width="0" font-size="10" dy="3.25">CLR</text>
<path d="M2522 730h10" />
<text x="2534" y="730" fill="black" stroke-width="0" font-size="10" dy="3.25">D</text>
<path d="M2662 590v-12l30 12l-30 12z" stroke="none" fill="#ffffcc" />
<path d="M2662 590v-12l30 12l-30 12z" />
<text x="2664" y="576" fill="black" stroke-width="0">pll_locked_OBUF_inst</text>
<text x="2664" y="604" fill="black" stroke-width="0" dy="7.7">OBUF</text>
<path d="M2702 590h-10" />
<text x="2694" y="589" fill="black" stroke-width="0" font-size="10">O</text>
<path d="M2652 590h10" />
<text x="2660" y="589" fill="black" stroke-width="0" font-size="10" text-anchor="end">I</text>
<path d="M2662 700v-12l30 12l-30 12z" stroke="none" fill="#ffffcc" />
<path d="M2662 700v-12l30 12l-30 12z" />
<text x="2664" y="686" fill="black" stroke-width="0">scope_out_OBUF_inst</text>
<text x="2664" y="714" fill="black" stroke-width="0" dy="7.7">OBUF</text>
<path d="M2702 700h-10" />
<text x="2694" y="699" fill="black" stroke-width="0" font-size="10">O</text>
<path d="M2652 700h10" />
<text x="2660" y="699" fill="black" stroke-width="0" font-size="10" text-anchor="end">I</text>
<path d="M2842 590v-7h14l7 7l-7 7h-14z" />
<text x="2867" y="590" fill="black" stroke-width="0" dy="3.85">pll_locked</text>
<path d="M2842 700v-7h14l7 7l-7 7h-14z" />
<text x="2867" y="700" fill="black" stroke-width="0" dy="3.85">scope_out</text>
</g>
<g>
<path d="M592 350h-40v140" />
<path d="M2482 620v70h40" />
<path d="M2162 410v70h20" />
<path d="M1842 430v70h30" />
<path d="M1542 410v70h20" />
<path d="M1132 310v70h40" />
<path d="M972 340v110h30" />
<path d="M972 410h30" />
<path d="M970 408h5v5h-5z" stroke="none" fill="#19b400" />
<path d="M592 170h-20v300" />
<path d="M572 190h20" />
<path d="M572 210h20" />
<path d="M572 230h20" />
<path d="M572 250h20" />
<path d="M572 270h20" />
<path d="M572 290h20" />
<path d="M572 310h20" />
<path d="M572 330h20" />
<path d="M570 188h5v5h-5z" stroke="none" fill="#19b400" />
<path d="M570 208h5v5h-5z" stroke="none" fill="#19b400" />
<path d="M570 228h5v5h-5z" stroke="none" fill="#19b400" />
<path d="M570 248h5v5h-5z" stroke="none" fill="#19b400" />
<path d="M570 268h5v5h-5z" stroke="none" fill="#19b400" />
<path d="M570 288h5v5h-5z" stroke="none" fill="#19b400" />
<path d="M570 308h5v5h-5z" stroke="none" fill="#19b400" />
<path d="M570 328h5v5h-5z" stroke="none" fill="#19b400" />
<path d="M572 30v100h20" />
<path d="M382 80h150v30h60" />
<path d="M332 80h-30v-70h510v60h-40" />
<path d="M132 150h200" />
<path d="M382 150h210" />
<path d="M772 150h70" />
<path d="M892 150h60v240h50" />
<path d="M952 320h160v150h390v-80h320v90h50" />
<path d="M1822 410h320v160h320v100h60" />
<path d="M950 318h5v5h-5z" stroke="none" fill="#19b400" />
<path d="M1112 360h60" />
<path d="M1110 358h5v5h-5z" stroke="none" fill="#19b400" />
<path d="M1502 460h60" />
<path d="M1500 458h5v5h-5z" stroke="none" fill="#19b400" />
<path d="M1820 408h5v5h-5z" stroke="none" fill="#19b400" />
<path d="M2142 460h40" />
<path d="M2140 458h5v5h-5z" stroke="none" fill="#19b400" />
<path d="M1082 420h90" />
<path d="M1252 390h110v160h40" />
<path d="M1362 490h140v100h180" />
<path d="M1680 588h5v5h-5z" stroke="none" fill="#19b400" />
<path d="M1360 488h5v5h-5z" stroke="none" fill="#19b400" />
<path d="M1722 510h-40v90h60v10h280" />
<path d="M2020 608h5v5h-5z" stroke="none" fill="#19b400" />
<path d="M2042 520h-20v130h310" />
<path d="M2702 590h140" />
<path d="M772 410h40v120h570v80h320v-120h20" />
<path d="M1702 590h300" />
<path d="M2000 588h5v5h-5z" stroke="none" fill="#19b400" />
<path d="M1382 530h20" />
<path d="M1380 528h5v5h-5z" stroke="none" fill="#19b400" />
<path d="M1700 588h5v5h-5z" stroke="none" fill="#19b400" />
<path d="M2042 500h-40v90h300v40h30" />
<path d="M2302 590h350" />
<path d="M2300 588h5v5h-5z" stroke="none" fill="#19b400" />
<path d="M132 570h1040" />
<path d="M1222 570h180" />
<path d="M1642 490h20v40h60" />
<path d="M1482 550h60v-30h20" />
<path d="M1952 510h30v30h60" />
<path d="M1802 510h20v30h50" />
<path d="M2262 490h20v180h50" />
<path d="M2122 520h60" />
<path d="M132 490h30" />
<path d="M212 490h120" />
<path d="M2702 700h140" />
<path d="M2602 700h50" />
<path d="M2412 650h30v80h80" />
<path d="M592 370h-60v140h420v-80h50" />
<path d="M952 500h180" />
<path d="M1130 498h5v5h-5z" stroke="none" fill="#19b400" />
<path d="M412 490h120" />
<path d="M530 488h5v5h-5z" stroke="none" fill="#19b400" />
<path d="M950 498h5v5h-5z" stroke="none" fill="#19b400" />
<path d="M1172 400h-40v230h390v-130h40" />
<path d="M1522 570h320" />
<path d="M1840 568h5v5h-5z" stroke="none" fill="#19b400" />
<path d="M1520 568h5v5h-5z" stroke="none" fill="#19b400" />
<path d="M1872 520h-30v110h320" />
<path d="M2160 628h5v5h-5z" stroke="none" fill="#19b400" />
<path d="M2182 500h-20v210h360" />
</g>
</g>
</svg>
