<?xml version="1.0" encoding="UTF-8" standalone="no"?>
<svg viewBox="0 0 2172 2420"
     clip="0 2172 2420 0"
     preserveAspectRatio="xMidYMid meet"
     version="1.1"
     baseProfile="full"
     xmlns="http://www.w3.org/2000/svg"
     xmlns:xlink="http://www.w3.org/1999/xlink"
     xmlns:ev="http://www.w3.org/2001/xml-events"
     xml:space="preserve">
<title>ro_bank_prescale_mux</title>
<desc>Nlview schematic (SVG)</desc>
<clipPath id="clippingbbox">
<rect x="0" y="0" width="2172" height="2420" />
</clipPath>
<g stroke="#19b400"
   stroke-width="1"
   stroke-linecap="butt"
   stroke-linejoin="miter"
   stroke-miterlimit="4"
   stroke-dasharray="none"
   stroke-dashoffset="0"
   fill="none"
   font-family="Helvetica"
   font-style="normal"
   font-size="12"
   writing-mode="lr-tb"
   cursor="crosshair"
   clip-path="url(#clippingbbox)">
<path d="M0 0h2172v2421h-2172z" stroke="none" fill="white" />
<g stroke="black" stroke-width="3">
<path d="M130 450l-7 7h-14v-14h14z" />
<text x="105" y="450" fill="black" stroke-width="0" text-anchor="end" dy="3.85">bank_sel[3:0]</text>
</g>
<g stroke="black">
<path d="M130 940l-7 7h-14v-14h14z" />
<text x="105" y="940" fill="black" stroke-width="0" text-anchor="end" dy="3.85">ro_in</text>
<path d="M130 1020l-7 7h-14v-14h14z" />
<text x="105" y="1020" fill="black" stroke-width="0" text-anchor="end" dy="3.85">rst_n</text>
<path d="M170 940v-12l30 12l-30 12z" stroke="none" fill="#ffffcc" />
<path d="M170 940v-12l30 12l-30 12z" />
<text x="172" y="926" fill="black" stroke-width="0">ro_in_IBUF_inst</text>
<text x="172" y="954" fill="black" stroke-width="0" dy="7.7">IBUF</text>
<path d="M210 940h-10" />
<text x="202" y="939" fill="black" stroke-width="0" font-size="10">O</text>
<path d="M160 940h10" />
<text x="168" y="939" fill="black" stroke-width="0" font-size="10" text-anchor="end">I</text>
<path d="M320 940v-12l30 12l-30 12z" stroke="none" fill="#ffffcc" />
<path d="M320 940v-12l30 12l-30 12z" />
<text x="322" y="926" fill="black" stroke-width="0">ro_in_IBUF_BUFG_inst</text>
<text x="322" y="954" fill="black" stroke-width="0" dy="7.7">BUFG</text>
<path d="M360 940h-10" />
<text x="352" y="939" fill="black" stroke-width="0" font-size="10">O</text>
<path d="M310 940h10" />
<text x="318" y="939" fill="black" stroke-width="0" font-size="10" text-anchor="end">I</text>
<path d="M320 1020v-12l30 12l-30 12z" stroke="none" fill="#ffffcc" />
<path d="M320 1020v-12l30 12l-30 12z" />
<text x="322" y="1006" fill="black" stroke-width="0">rst_n_IBUF_inst</text>
<text x="322" y="1034" fill="black" stroke-width="0" dy="7.7">IBUF</text>
<path d="M360 1020h-10" />
<text x="352" y="1019" fill="black" stroke-width="0" font-size="10">O</text>
<path d="M310 1020h10" />
<text x="318" y="1019" fill="black" stroke-width="0" font-size="10" text-anchor="end">I</text>
<path d="M630 450v-12l30 12l-30 12z" stroke="none" fill="#ffffcc" />
<path d="M630 450v-12l30 12l-30 12z" />
<text x="632" y="436" fill="black" stroke-width="0">bank_sel_IBUF[0]_inst</text>
<text x="632" y="464" fill="black" stroke-width="0" dy="7.7">IBUF</text>
<path d="M670 450h-10" />
<text x="662" y="449" fill="black" stroke-width="0" font-size="10">O</text>
<path d="M620 450h10" />
<text x="628" y="449" fill="black" stroke-width="0" font-size="10" text-anchor="end">I</text>
<path d="M630 520v-12l30 12l-30 12z" stroke="none" fill="#ffffcc" />
<path d="M630 520v-12l30 12l-30 12z" />
<text x="632" y="506" fill="black" stroke-width="0">bank_sel_IBUF[1]_inst</text>
<text x="632" y="534" fill="black" stroke-width="0" dy="7.7">IBUF</text>
<path d="M670 520h-10" />
<text x="662" y="519" fill="black" stroke-width="0" font-size="10">O</text>
<path d="M620 520h10" />
<text x="628" y="519" fill="black" stroke-width="0" font-size="10" text-anchor="end">I</text>
<path d="M630 590v-12l30 12l-30 12z" stroke="none" fill="#ffffcc" />
<path d="M630 590v-12l30 12l-30 12z" />
<text x="632" y="576" fill="black" stroke-width="0">bank_sel_IBUF[2]_inst</text>
<text x="632" y="604" fill="black" stroke-width="0" dy="7.7">IBUF</text>
<path d="M670 590h-10" />
<text x="662" y="589" fill="black" stroke-width="0" font-size="10">O</text>
<path d="M620 590h10" />
<text x="628" y="589" fill="black" stroke-width="0" font-size="10" text-anchor="end">I</text>
<path d="M630 660v-12l30 12l-30 12z" stroke="none" fill="#ffffcc" />
<path d="M630 660v-12l30 12l-30 12z" />
<text x="632" y="646" fill="black" stroke-width="0">bank_sel_IBUF[3]_inst</text>
<text x="632" y="674" fill="black" stroke-width="0" dy="7.7">IBUF</text>
<path d="M670 660h-10" />
<text x="662" y="659" fill="black" stroke-width="0" font-size="10">O</text>
<path d="M620 660h10" />
<text x="628" y="659" fill="black" stroke-width="0" font-size="10" text-anchor="end">I</text>
<path d="M630 968h60v62h-60z" stroke="none" fill="#dfebf8" />
<path d="M630 968h60v62h-60z" />
</g>
<g stroke="black" stroke-width="3">
<path d="M641 973v12" />
<path d="M635 979h12" />
</g>
<g stroke="black">
<path d="M633 971h16v16h-16z" />
<text x="660" y="966" fill="black" stroke-width="0" text-anchor="middle">u_ps3</text>
<text x="660" y="1032" fill="black" stroke-width="0" text-anchor="middle" dy="7.7">ro_ring_prescale__parameterized2</text>
<path d="M700 1000h-10" />
<text x="692" y="999" fill="black" stroke-width="0" font-size="10">ro_div</text>
<path d="M620 1000h10" />
<text x="628" y="999" fill="black" stroke-width="0" font-size="10" text-anchor="end">ro_in</text>
<path d="M620 1020h10" />
<text x="628" y="1019" fill="black" stroke-width="0" font-size="10" text-anchor="end">rst_n</text>
<path d="M680 1000h10" />
<path d="M640 1000h-10" />
<path d="M640 1020h-10" />
<path d="M630 1078h60v62h-60z" stroke="none" fill="#dfebf8" />
<path d="M630 1078h60v62h-60z" />
</g>
<g stroke="black" stroke-width="3">
<path d="M641 1083v12" />
<path d="M635 1089h12" />
</g>
<g stroke="black">
<path d="M633 1081h16v16h-16z" />
<text x="660" y="1076" fill="black" stroke-width="0" text-anchor="middle">u_ps5</text>
<text x="660" y="1142" fill="black" stroke-width="0" text-anchor="middle" dy="7.7">ro_ring_prescale__parameterized1</text>
<path d="M700 1110h-10" />
<text x="692" y="1109" fill="black" stroke-width="0" font-size="10">ro_div</text>
<path d="M620 1110h10" />
<text x="628" y="1109" fill="black" stroke-width="0" font-size="10" text-anchor="end">ro_in</text>
<path d="M620 1130h10" />
<text x="628" y="1129" fill="black" stroke-width="0" font-size="10" text-anchor="end">rst_n</text>
<path d="M680 1110h10" />
<path d="M640 1110h-10" />
<path d="M640 1130h-10" />
<path d="M990 420h60v120h-60z" stroke="none" fill="#ffffcc" />
<path d="M990 420h60v120h-60z" />
<text x="1020" y="418" fill="black" stroke-width="0" text-anchor="middle">ro_div_OBUF_inst_i_4</text>
<text x="1020" y="542" fill="black" stroke-width="0" text-anchor="middle" dy="7.7">LUT6</text>
<path d="M1060 470h-10" />
<text x="1048" y="470" fill="black" stroke-width="0" font-size="10" text-anchor="end" dy="3.25">O</text>
<path d="M980 430h10" />
<text x="992" y="430" fill="black" stroke-width="0" font-size="10" dy="3.25">I0</text>
<path d="M980 450h10" />
<text x="992" y="450" fill="black" stroke-width="0" font-size="10" dy="3.25">I1</text>
<path d="M980 470h10" />
<text x="992" y="470" fill="black" stroke-width="0" font-size="10" dy="3.25">I2</text>
<path d="M980 490h10" />
<text x="992" y="490" fill="black" stroke-width="0" font-size="10" dy="3.25">I3</text>
<path d="M980 510h10" />
<text x="992" y="510" fill="black" stroke-width="0" font-size="10" dy="3.25">I4</text>
<path d="M980 530h10" />
<text x="992" y="530" fill="black" stroke-width="0" font-size="10" dy="3.25">I5</text>
<path d="M990 600h60v120h-60z" stroke="none" fill="#ffffcc" />
<path d="M990 600h60v120h-60z" />
<text x="1020" y="598" fill="black" stroke-width="0" text-anchor="middle">ro_div_OBUF_inst_i_5</text>
<text x="1020" y="722" fill="black" stroke-width="0" text-anchor="middle" dy="7.7">LUT6</text>
<path d="M1060 650h-10" />
<text x="1048" y="650" fill="black" stroke-width="0" font-size="10" text-anchor="end" dy="3.25">O</text>
<path d="M980 610h10" />
<text x="992" y="610" fill="black" stroke-width="0" font-size="10" dy="3.25">I0</text>
<path d="M980 630h10" />
<text x="992" y="630" fill="black" stroke-width="0" font-size="10" dy="3.25">I1</text>
<path d="M980 650h10" />
<text x="992" y="650" fill="black" stroke-width="0" font-size="10" dy="3.25">I2</text>
<path d="M980 670h10" />
<text x="992" y="670" fill="black" stroke-width="0" font-size="10" dy="3.25">I3</text>
<path d="M980 690h10" />
<text x="992" y="690" fill="black" stroke-width="0" font-size="10" dy="3.25">I4</text>
<path d="M980 710h10" />
<text x="992" y="710" fill="black" stroke-width="0" font-size="10" dy="3.25">I5</text>
<path d="M990 770h60v120h-60z" stroke="none" fill="#ffffcc" />
<path d="M990 770h60v120h-60z" />
<text x="1020" y="768" fill="black" stroke-width="0" text-anchor="middle">ro_div_OBUF_inst_i_6</text>
<text x="1020" y="892" fill="black" stroke-width="0" text-anchor="middle" dy="7.7">LUT6</text>
<path d="M1060 820h-10" />
<text x="1048" y="820" fill="black" stroke-width="0" font-size="10" text-anchor="end" dy="3.25">O</text>
<path d="M980 780h10" />
<text x="992" y="780" fill="black" stroke-width="0" font-size="10" dy="3.25">I0</text>
<path d="M980 800h10" />
<text x="992" y="800" fill="black" stroke-width="0" font-size="10" dy="3.25">I1</text>
<path d="M980 820h10" />
<text x="992" y="820" fill="black" stroke-width="0" font-size="10" dy="3.25">I2</text>
<path d="M980 840h10" />
<text x="992" y="840" fill="black" stroke-width="0" font-size="10" dy="3.25">I3</text>
<path d="M980 860h10" />
<text x="992" y="860" fill="black" stroke-width="0" font-size="10" dy="3.25">I4</text>
<path d="M980 880h10" />
<text x="992" y="880" fill="black" stroke-width="0" font-size="10" dy="3.25">I5</text>
<path d="M990 940h60v120h-60z" stroke="none" fill="#ffffcc" />
<path d="M990 940h60v120h-60z" />
<text x="1020" y="938" fill="black" stroke-width="0" text-anchor="middle">ro_div_OBUF_inst_i_7</text>
<text x="1020" y="1062" fill="black" stroke-width="0" text-anchor="middle" dy="7.7">LUT6</text>
<path d="M1060 990h-10" />
<text x="1048" y="990" fill="black" stroke-width="0" font-size="10" text-anchor="end" dy="3.25">O</text>
<path d="M980 950h10" />
<text x="992" y="950" fill="black" stroke-width="0" font-size="10" dy="3.25">I0</text>
<path d="M980 970h10" />
<text x="992" y="970" fill="black" stroke-width="0" font-size="10" dy="3.25">I1</text>
<path d="M980 990h10" />
<text x="992" y="990" fill="black" stroke-width="0" font-size="10" dy="3.25">I2</text>
<path d="M980 1010h10" />
<text x="992" y="1010" fill="black" stroke-width="0" font-size="10" dy="3.25">I3</text>
<path d="M980 1030h10" />
<text x="992" y="1030" fill="black" stroke-width="0" font-size="10" dy="3.25">I4</text>
<path d="M980 1050h10" />
<text x="992" y="1050" fill="black" stroke-width="0" font-size="10" dy="3.25">I5</text>
<path d="M990 1118h60v62h-60z" stroke="none" fill="#dfebf8" />
<path d="M990 1118h60v62h-60z" />
</g>
<g stroke="black" stroke-width="3">
<path d="M1001 1123v12" />
<path d="M995 1129h12" />
</g>
<g stroke="black">
<path d="M993 1121h16v16h-16z" />
<text x="1020" y="1116" fill="black" stroke-width="0" text-anchor="middle">u_ps9</text>
<text x="1020" y="1182" fill="black" stroke-width="0" text-anchor="middle" dy="7.7">ro_ring_prescale</text>
<path d="M1060 1150h-10" />
<text x="1052" y="1149" fill="black" stroke-width="0" font-size="10">ro_div</text>
<path d="M980 1150h10" />
<text x="988" y="1149" fill="black" stroke-width="0" font-size="10" text-anchor="end">ro_in</text>
<path d="M980 1170h10" />
<text x="988" y="1169" fill="black" stroke-width="0" font-size="10" text-anchor="end">rst_n</text>
<path d="M1040 1150h10" />
<path d="M1000 1150h-10" />
<path d="M1000 1170h-10" />
<path d="M1270 610l40 15v30l-40 15z" stroke="none" fill="#ffffcc" />
<path d="M1270 610l40 15v30l-40 15z" />
<text x="1290" y="608" fill="black" stroke-width="0" text-anchor="middle">ro_div_OBUF_inst_i_2</text>
<text x="1294" y="664" fill="black" stroke-width="0" dy="7.7">MUXF7</text>
<path d="M1320 640h-10" />
<text x="1312" y="639" fill="black" stroke-width="0" font-size="10">O</text>
<path d="M1260 630h10" />
<text x="1268" y="629" fill="black" stroke-width="0" font-size="10" text-anchor="end">I0</text>
<path d="M1260 650h10" />
<text x="1268" y="649" fill="black" stroke-width="0" font-size="10" text-anchor="end">I1</text>
<path d="M1290 670v-8" />
<text x="1288" y="670" fill="black" stroke-width="0" font-size="10" text-anchor="end" dy="6.5">S</text>
<path d="M1270 870l40 15v30l-40 15z" stroke="none" fill="#ffffcc" />
<path d="M1270 870l40 15v30l-40 15z" />
<text x="1290" y="868" fill="black" stroke-width="0" text-anchor="middle">ro_div_OBUF_inst_i_3</text>
<text x="1294" y="924" fill="black" stroke-width="0" dy="7.7">MUXF7</text>
<path d="M1320 900h-10" />
<text x="1312" y="899" fill="black" stroke-width="0" font-size="10">O</text>
<path d="M1260 890h10" />
<text x="1268" y="889" fill="black" stroke-width="0" font-size="10" text-anchor="end">I0</text>
<path d="M1260 910h10" />
<text x="1268" y="909" fill="black" stroke-width="0" font-size="10" text-anchor="end">I1</text>
<path d="M1290 930v-8" />
<text x="1288" y="930" fill="black" stroke-width="0" font-size="10" text-anchor="end" dy="6.5">S</text>
<path d="M1270 1158h60v62h-60z" stroke="none" fill="#dfebf8" />
<path d="M1270 1158h60v62h-60z" />
</g>
<g stroke="black" stroke-width="3">
<path d="M1281 1163v12" />
<path d="M1275 1169h12" />
</g>
<g stroke="black">
<path d="M1273 1161h16v16h-16z" />
<text x="1300" y="1156" fill="black" stroke-width="0" text-anchor="middle">u_ps7</text>
<text x="1300" y="1222" fill="black" stroke-width="0" text-anchor="middle" dy="7.7">ro_ring_prescale__parameterized0</text>
<path d="M1340 1190h-10" />
<text x="1332" y="1189" fill="black" stroke-width="0" font-size="10">ro_div</text>
<path d="M1260 1190h10" />
<text x="1268" y="1189" fill="black" stroke-width="0" font-size="10" text-anchor="end">ro_in</text>
<path d="M1260 1210h10" />
<text x="1268" y="1209" fill="black" stroke-width="0" font-size="10" text-anchor="end">rst_n</text>
<path d="M1320 1190h10" />
<path d="M1280 1190h-10" />
<path d="M1280 1210h-10" />
<path d="M1610 340h60v80h-60z" stroke="none" fill="#ffffcc" />
<path d="M1610 340h60v80h-60z" />
<text x="1640" y="338" fill="black" stroke-width="0" text-anchor="middle">scale_out_OBUF[4]_inst_i_1</text>
<text x="1640" y="422" fill="black" stroke-width="0" text-anchor="middle" dy="7.7">LUT4</text>
<path d="M1680 370h-10" />
<text x="1668" y="370" fill="black" stroke-width="0" font-size="10" text-anchor="end" dy="3.25">O</text>
<path d="M1600 350h10" />
<text x="1612" y="350" fill="black" stroke-width="0" font-size="10" dy="3.25">I0</text>
<path d="M1600 370h10" />
<text x="1612" y="370" fill="black" stroke-width="0" font-size="10" dy="3.25">I1</text>
<path d="M1600 390h10" />
<text x="1612" y="390" fill="black" stroke-width="0" font-size="10" dy="3.25">I2</text>
<path d="M1600 410h10" />
<text x="1612" y="410" fill="black" stroke-width="0" font-size="10" dy="3.25">I3</text>
<path d="M1610 470h60v80h-60z" stroke="none" fill="#ffffcc" />
<path d="M1610 470h60v80h-60z" />
<text x="1640" y="468" fill="black" stroke-width="0" text-anchor="middle">scale_out_OBUF[6]_inst_i_1</text>
<text x="1640" y="552" fill="black" stroke-width="0" text-anchor="middle" dy="7.7">LUT4</text>
<path d="M1680 500h-10" />
<text x="1668" y="500" fill="black" stroke-width="0" font-size="10" text-anchor="end" dy="3.25">O</text>
<path d="M1600 480h10" />
<text x="1612" y="480" fill="black" stroke-width="0" font-size="10" dy="3.25">I0</text>
<path d="M1600 500h10" />
<text x="1612" y="500" fill="black" stroke-width="0" font-size="10" dy="3.25">I1</text>
<path d="M1600 520h10" />
<text x="1612" y="520" fill="black" stroke-width="0" font-size="10" dy="3.25">I2</text>
<path d="M1600 540h10" />
<text x="1612" y="540" fill="black" stroke-width="0" font-size="10" dy="3.25">I3</text>
<path d="M1610 600h60v80h-60z" stroke="none" fill="#ffffcc" />
<path d="M1610 600h60v80h-60z" />
<text x="1640" y="598" fill="black" stroke-width="0" text-anchor="middle">scale_out_OBUF[8]_inst_i_1</text>
<text x="1640" y="682" fill="black" stroke-width="0" text-anchor="middle" dy="7.7">LUT4</text>
<path d="M1680 630h-10" />
<text x="1668" y="630" fill="black" stroke-width="0" font-size="10" text-anchor="end" dy="3.25">O</text>
<path d="M1600 610h10" />
<text x="1612" y="610" fill="black" stroke-width="0" font-size="10" dy="3.25">I0</text>
<path d="M1600 630h10" />
<text x="1612" y="630" fill="black" stroke-width="0" font-size="10" dy="3.25">I1</text>
<path d="M1600 650h10" />
<text x="1612" y="650" fill="black" stroke-width="0" font-size="10" dy="3.25">I2</text>
<path d="M1600 670h10" />
<text x="1612" y="670" fill="black" stroke-width="0" font-size="10" dy="3.25">I3</text>
<path d="M1610 730h60v80h-60z" stroke="none" fill="#ffffcc" />
<path d="M1610 730h60v80h-60z" />
<text x="1640" y="728" fill="black" stroke-width="0" text-anchor="middle">scale_out_OBUF[10]_inst_i_1</text>
<text x="1640" y="812" fill="black" stroke-width="0" text-anchor="middle" dy="7.7">LUT4</text>
<path d="M1680 760h-10" />
<text x="1668" y="760" fill="black" stroke-width="0" font-size="10" text-anchor="end" dy="3.25">O</text>
<path d="M1600 740h10" />
<text x="1612" y="740" fill="black" stroke-width="0" font-size="10" dy="3.25">I0</text>
<path d="M1600 760h10" />
<text x="1612" y="760" fill="black" stroke-width="0" font-size="10" dy="3.25">I1</text>
<path d="M1600 780h10" />
<text x="1612" y="780" fill="black" stroke-width="0" font-size="10" dy="3.25">I2</text>
<path d="M1600 800h10" />
<text x="1612" y="800" fill="black" stroke-width="0" font-size="10" dy="3.25">I3</text>
<path d="M1610 860l40 15v30l-40 15z" stroke="none" fill="#ffffcc" />
<path d="M1610 860l40 15v30l-40 15z" />
<text x="1630" y="858" fill="black" stroke-width="0" text-anchor="middle">ro_div_OBUF_inst_i_1</text>
<text x="1634" y="914" fill="black" stroke-width="0" dy="7.7">MUXF8</text>
<path d="M1660 890h-10" />
<text x="1652" y="889" fill="black" stroke-width="0" font-size="10">O</text>
<path d="M1600 880h10" />
<text x="1608" y="879" fill="black" stroke-width="0" font-size="10" text-anchor="end">I0</text>
<path d="M1600 900h10" />
<text x="1608" y="899" fill="black" stroke-width="0" font-size="10" text-anchor="end">I1</text>
<path d="M1630 920v-8" />
<text x="1628" y="920" fill="black" stroke-width="0" font-size="10" text-anchor="end" dy="6.5">S</text>
<path d="M1820 40v-12l30 12l-30 12z" stroke="none" fill="#ffffcc" />
<path d="M1820 40v-12l30 12l-30 12z" />
<text x="1822" y="26" fill="black" stroke-width="0">scale_out_OBUF[0]_inst</text>
<text x="1822" y="54" fill="black" stroke-width="0" dy="7.7">OBUF</text>
<path d="M1860 40h-10" />
<text x="1852" y="39" fill="black" stroke-width="0" font-size="10">O</text>
<path d="M1810 40h10" />
<text x="1818" y="39" fill="black" stroke-width="0" font-size="10" text-anchor="end">I</text>
<path d="M1820 110v-12l30 12l-30 12z" stroke="none" fill="#ffffcc" />
<path d="M1820 110v-12l30 12l-30 12z" />
<text x="1822" y="96" fill="black" stroke-width="0">scale_out_OBUF[1]_inst</text>
<text x="1822" y="124" fill="black" stroke-width="0" dy="7.7">OBUF</text>
<path d="M1860 110h-10" />
<text x="1852" y="109" fill="black" stroke-width="0" font-size="10">O</text>
<path d="M1810 110h10" />
<text x="1818" y="109" fill="black" stroke-width="0" font-size="10" text-anchor="end">I</text>
<path d="M1820 180v-12l30 12l-30 12z" stroke="none" fill="#ffffcc" />
<path d="M1820 180v-12l30 12l-30 12z" />
<text x="1822" y="166" fill="black" stroke-width="0">scale_out_OBUF[2]_inst</text>
<text x="1822" y="194" fill="black" stroke-width="0" dy="7.7">OBUF</text>
<path d="M1860 180h-10" />
<text x="1852" y="179" fill="black" stroke-width="0" font-size="10">O</text>
<path d="M1810 180h10" />
<text x="1818" y="179" fill="black" stroke-width="0" font-size="10" text-anchor="end">I</text>
<path d="M1820 250v-12l30 12l-30 12z" stroke="none" fill="#ffffcc" />
<path d="M1820 250v-12l30 12l-30 12z" />
<text x="1822" y="236" fill="black" stroke-width="0">scale_out_OBUF[3]_inst</text>
<text x="1822" y="264" fill="black" stroke-width="0" dy="7.7">OBUF</text>
<path d="M1860 250h-10" />
<text x="1852" y="249" fill="black" stroke-width="0" font-size="10">O</text>
<path d="M1810 250h10" />
<text x="1818" y="249" fill="black" stroke-width="0" font-size="10" text-anchor="end">I</text>
<path d="M1772 290h16" />
<path d="M1775 293h10" />
<path d="M1778 296h4" />
<path d="M1820 340v-12l30 12l-30 12z" stroke="none" fill="#ffffcc" />
<path d="M1820 340v-12l30 12l-30 12z" />
<text x="1822" y="326" fill="black" stroke-width="0">scale_out_OBUF[4]_inst</text>
<text x="1822" y="354" fill="black" stroke-width="0" dy="7.7">OBUF</text>
<path d="M1860 340h-10" />
<text x="1852" y="339" fill="black" stroke-width="0" font-size="10">O</text>
<path d="M1810 340h10" />
<text x="1818" y="339" fill="black" stroke-width="0" font-size="10" text-anchor="end">I</text>
<path d="M1820 410v-12l30 12l-30 12z" stroke="none" fill="#ffffcc" />
<path d="M1820 410v-12l30 12l-30 12z" />
<text x="1822" y="396" fill="black" stroke-width="0">scale_out_OBUF[5]_inst</text>
<text x="1822" y="424" fill="black" stroke-width="0" dy="7.7">OBUF</text>
<path d="M1860 410h-10" />
<text x="1852" y="409" fill="black" stroke-width="0" font-size="10">O</text>
<path d="M1810 410h10" />
<text x="1818" y="409" fill="black" stroke-width="0" font-size="10" text-anchor="end">I</text>
<path d="M1772 450h16" />
<path d="M1775 453h10" />
<path d="M1778 456h4" />
<path d="M1820 500v-12l30 12l-30 12z" stroke="none" fill="#ffffcc" />
<path d="M1820 500v-12l30 12l-30 12z" />
<text x="1822" y="486" fill="black" stroke-width="0">scale_out_OBUF[6]_inst</text>
<text x="1822" y="514" fill="black" stroke-width="0" dy="7.7">OBUF</text>
<path d="M1860 500h-10" />
<text x="1852" y="499" fill="black" stroke-width="0" font-size="10">O</text>
<path d="M1810 500h10" />
<text x="1818" y="499" fill="black" stroke-width="0" font-size="10" text-anchor="end">I</text>
<path d="M1820 570v-12l30 12l-30 12z" stroke="none" fill="#ffffcc" />
<path d="M1820 570v-12l30 12l-30 12z" />
<text x="1822" y="556" fill="black" stroke-width="0">scale_out_OBUF[7]_inst</text>
<text x="1822" y="584" fill="black" stroke-width="0" dy="7.7">OBUF</text>
<path d="M1860 570h-10" />
<text x="1852" y="569" fill="black" stroke-width="0" font-size="10">O</text>
<path d="M1810 570h10" />
<text x="1818" y="569" fill="black" stroke-width="0" font-size="10" text-anchor="end">I</text>
<path d="M1772 610h16" />
<path d="M1775 613h10" />
<path d="M1778 616h4" />
<path d="M1820 660v-12l30 12l-30 12z" stroke="none" fill="#ffffcc" />
<path d="M1820 660v-12l30 12l-30 12z" />
<text x="1822" y="646" fill="black" stroke-width="0">scale_out_OBUF[8]_inst</text>
<text x="1822" y="674" fill="black" stroke-width="0" dy="7.7">OBUF</text>
<path d="M1860 660h-10" />
<text x="1852" y="659" fill="black" stroke-width="0" font-size="10">O</text>
<path d="M1810 660h10" />
<text x="1818" y="659" fill="black" stroke-width="0" font-size="10" text-anchor="end">I</text>
<path d="M1820 730v-12l30 12l-30 12z" stroke="none" fill="#ffffcc" />
<path d="M1820 730v-12l30 12l-30 12z" />
<text x="1822" y="716" fill="black" stroke-width="0">scale_out_OBUF[9]_inst</text>
<text x="1822" y="744" fill="black" stroke-width="0" dy="7.7">OBUF</text>
<path d="M1860 730h-10" />
<text x="1852" y="729" fill="black" stroke-width="0" font-size="10">O</text>
<path d="M1810 730h10" />
<text x="1818" y="729" fill="black" stroke-width="0" font-size="10" text-anchor="end">I</text>
<path d="M1772 770h16" />
<path d="M1775 773h10" />
<path d="M1778 776h4" />
<path d="M1820 820v-12l30 12l-30 12z" stroke="none" fill="#ffffcc" />
<path d="M1820 820v-12l30 12l-30 12z" />
<text x="1822" y="806" fill="black" stroke-width="0">scale_out_OBUF[10]_inst</text>
<text x="1822" y="834" fill="black" stroke-width="0" dy="7.7">OBUF</text>
<path d="M1860 820h-10" />
<text x="1852" y="819" fill="black" stroke-width="0" font-size="10">O</text>
<path d="M1810 820h10" />
<text x="1818" y="819" fill="black" stroke-width="0" font-size="10" text-anchor="end">I</text>
<path d="M1820 890v-12l30 12l-30 12z" stroke="none" fill="#ffffcc" />
<path d="M1820 890v-12l30 12l-30 12z" />
<text x="1822" y="876" fill="black" stroke-width="0">ro_div_OBUF_inst</text>
<text x="1822" y="904" fill="black" stroke-width="0" dy="7.7">OBUF</text>
<path d="M1860 890h-10" />
<text x="1852" y="889" fill="black" stroke-width="0" font-size="10">O</text>
<path d="M1810 890h10" />
<text x="1818" y="889" fill="black" stroke-width="0" font-size="10" text-anchor="end">I</text>
<path d="M1820 960v-12l30 12l-30 12z" stroke="none" fill="#ffffcc" />
<path d="M1820 960v-12l30 12l-30 12z" />
<text x="1822" y="946" fill="black" stroke-width="0">scale_out_OBUF[11]_inst</text>
<text x="1822" y="974" fill="black" stroke-width="0" dy="7.7">OBUF</text>
<path d="M1860 960h-10" />
<text x="1852" y="959" fill="black" stroke-width="0" font-size="10">O</text>
<path d="M1810 960h10" />
<text x="1818" y="959" fill="black" stroke-width="0" font-size="10" text-anchor="end">I</text>
<path d="M1820 1030v-12l30 12l-30 12z" stroke="none" fill="#ffffcc" />
<path d="M1820 1030v-12l30 12l-30 12z" />
<text x="1822" y="1016" fill="black" stroke-width="0">scale_out_OBUF[12]_inst</text>
<text x="1822" y="1044" fill="black" stroke-width="0" dy="7.7">OBUF</text>
<path d="M1860 1030h-10" />
<text x="1852" y="1029" fill="black" stroke-width="0" font-size="10">O</text>
<path d="M1810 1030h10" />
<text x="1818" y="1029" fill="black" stroke-width="0" font-size="10" text-anchor="end">I</text>
<path d="M1820 1100v-12l30 12l-30 12z" stroke="none" fill="#ffffcc" />
<path d="M1820 1100v-12l30 12l-30 12z" />
<text x="1822" y="1086" fill="black" stroke-width="0">scale_out_OBUF[13]_inst</text>
<text x="1822" y="1114" fill="black" stroke-width="0" dy="7.7">OBUF</text>
<path d="M1860 1100h-10" />
<text x="1852" y="1099" fill="black" stroke-width="0" font-size="10">O</text>
<path d="M1810 1100h10" />
<text x="1818" y="1099" fill="black" stroke-width="0" font-size="10" text-anchor="end">I</text>
<path d="M1820 1170v-12l30 12l-30 12z" stroke="none" fill="#ffffcc" />
<path d="M1820 1170v-12l30 12l-30 12z" />
<text x="1822" y="1156" fill="black" stroke-width="0">scale_out_OBUF[14]_inst</text>
<text x="1822" y="1184" fill="black" stroke-width="0" dy="7.7">OBUF</text>
<path d="M1860 1170h-10" />
<text x="1852" y="1169" fill="black" stroke-width="0" font-size="10">O</text>
<path d="M1810 1170h10" />
<text x="1818" y="1169" fill="black" stroke-width="0" font-size="10" text-anchor="end">I</text>
<path d="M1820 1240v-12l30 12l-30 12z" stroke="none" fill="#ffffcc" />
<path d="M1820 1240v-12l30 12l-30 12z" />
<text x="1822" y="1226" fill="black" stroke-width="0">scale_out_OBUF[15]_inst</text>
<text x="1822" y="1254" fill="black" stroke-width="0" dy="7.7">OBUF</text>
<path d="M1860 1240h-10" />
<text x="1852" y="1239" fill="black" stroke-width="0" font-size="10">O</text>
<path d="M1810 1240h10" />
<text x="1818" y="1239" fill="black" stroke-width="0" font-size="10" text-anchor="end">I</text>
<path d="M1820 1310v-12l30 12l-30 12z" stroke="none" fill="#ffffcc" />
<path d="M1820 1310v-12l30 12l-30 12z" />
<text x="1822" y="1296" fill="black" stroke-width="0">scale_out_OBUF[16]_inst</text>
<text x="1822" y="1324" fill="black" stroke-width="0" dy="7.7">OBUF</text>
<path d="M1860 1310h-10" />
<text x="1852" y="1309" fill="black" stroke-width="0" font-size="10">O</text>
<path d="M1810 1310h10" />
<text x="1818" y="1309" fill="black" stroke-width="0" font-size="10" text-anchor="end">I</text>
<path d="M1820 1380v-12l30 12l-30 12z" stroke="none" fill="#ffffcc" />
<path d="M1820 1380v-12l30 12l-30 12z" />
<text x="1822" y="1366" fill="black" stroke-width="0">scale_out_OBUF[17]_inst</text>
<text x="1822" y="1394" fill="black" stroke-width="0" dy="7.7">OBUF</text>
<path d="M1860 1380h-10" />
<text x="1852" y="1379" fill="black" stroke-width="0" font-size="10">O</text>
<path d="M1810 1380h10" />
<text x="1818" y="1379" fill="black" stroke-width="0" font-size="10" text-anchor="end">I</text>
<path d="M1820 1450v-12l30 12l-30 12z" stroke="none" fill="#ffffcc" />
<path d="M1820 1450v-12l30 12l-30 12z" />
<text x="1822" y="1436" fill="black" stroke-width="0">scale_out_OBUF[18]_inst</text>
<text x="1822" y="1464" fill="black" stroke-width="0" dy="7.7">OBUF</text>
<path d="M1860 1450h-10" />
<text x="1852" y="1449" fill="black" stroke-width="0" font-size="10">O</text>
<path d="M1810 1450h10" />
<text x="1818" y="1449" fill="black" stroke-width="0" font-size="10" text-anchor="end">I</text>
<path d="M1820 1520v-12l30 12l-30 12z" stroke="none" fill="#ffffcc" />
<path d="M1820 1520v-12l30 12l-30 12z" />
<text x="1822" y="1506" fill="black" stroke-width="0">scale_out_OBUF[19]_inst</text>
<text x="1822" y="1534" fill="black" stroke-width="0" dy="7.7">OBUF</text>
<path d="M1860 1520h-10" />
<text x="1852" y="1519" fill="black" stroke-width="0" font-size="10">O</text>
<path d="M1810 1520h10" />
<text x="1818" y="1519" fill="black" stroke-width="0" font-size="10" text-anchor="end">I</text>
<path d="M1820 1590v-12l30 12l-30 12z" stroke="none" fill="#ffffcc" />
<path d="M1820 1590v-12l30 12l-30 12z" />
<text x="1822" y="1576" fill="black" stroke-width="0">scale_out_OBUF[20]_inst</text>
<text x="1822" y="1604" fill="black" stroke-width="0" dy="7.7">OBUF</text>
<path d="M1860 1590h-10" />
<text x="1852" y="1589" fill="black" stroke-width="0" font-size="10">O</text>
<path d="M1810 1590h10" />
<text x="1818" y="1589" fill="black" stroke-width="0" font-size="10" text-anchor="end">I</text>
<path d="M1820 1660v-12l30 12l-30 12z" stroke="none" fill="#ffffcc" />
<path d="M1820 1660v-12l30 12l-30 12z" />
<text x="1822" y="1646" fill="black" stroke-width="0">scale_out_OBUF[21]_inst</text>
<text x="1822" y="1674" fill="black" stroke-width="0" dy="7.7">OBUF</text>
<path d="M1860 1660h-10" />
<text x="1852" y="1659" fill="black" stroke-width="0" font-size="10">O</text>
<path d="M1810 1660h10" />
<text x="1818" y="1659" fill="black" stroke-width="0" font-size="10" text-anchor="end">I</text>
<path d="M1820 1730v-12l30 12l-30 12z" stroke="none" fill="#ffffcc" />
<path d="M1820 1730v-12l30 12l-30 12z" />
<text x="1822" y="1716" fill="black" stroke-width="0">scale_out_OBUF[22]_inst</text>
<text x="1822" y="1744" fill="black" stroke-width="0" dy="7.7">OBUF</text>
<path d="M1860 1730h-10" />
<text x="1852" y="1729" fill="black" stroke-width="0" font-size="10">O</text>
<path d="M1810 1730h10" />
<text x="1818" y="1729" fill="black" stroke-width="0" font-size="10" text-anchor="end">I</text>
<path d="M1820 1800v-12l30 12l-30 12z" stroke="none" fill="#ffffcc" />
<path d="M1820 1800v-12l30 12l-30 12z" />
<text x="1822" y="1786" fill="black" stroke-width="0">scale_out_OBUF[23]_inst</text>
<text x="1822" y="1814" fill="black" stroke-width="0" dy="7.7">OBUF</text>
<path d="M1860 1800h-10" />
<text x="1852" y="1799" fill="black" stroke-width="0" font-size="10">O</text>
<path d="M1810 1800h10" />
<text x="1818" y="1799" fill="black" stroke-width="0" font-size="10" text-anchor="end">I</text>
<path d="M1820 1870v-12l30 12l-30 12z" stroke="none" fill="#ffffcc" />
<path d="M1820 1870v-12l30 12l-30 12z" />
<text x="1822" y="1856" fill="black" stroke-width="0">scale_out_OBUF[24]_inst</text>
<text x="1822" y="1884" fill="black" stroke-width="0" dy="7.7">OBUF</text>
<path d="M1860 1870h-10" />
<text x="1852" y="1869" fill="black" stroke-width="0" font-size="10">O</text>
<path d="M1810 1870h10" />
<text x="1818" y="1869" fill="black" stroke-width="0" font-size="10" text-anchor="end">I</text>
<path d="M1820 1940v-12l30 12l-30 12z" stroke="none" fill="#ffffcc" />
<path d="M1820 1940v-12l30 12l-30 12z" />
<text x="1822" y="1926" fill="black" stroke-width="0">scale_out_OBUF[25]_inst</text>
<text x="1822" y="1954" fill="black" stroke-width="0" dy="7.7">OBUF</text>
<path d="M1860 1940h-10" />
<text x="1852" y="1939" fill="black" stroke-width="0" font-size="10">O</text>
<path d="M1810 1940h10" />
<text x="1818" y="1939" fill="black" stroke-width="0" font-size="10" text-anchor="end">I</text>
<path d="M1820 2010v-12l30 12l-30 12z" stroke="none" fill="#ffffcc" />
<path d="M1820 2010v-12l30 12l-30 12z" />
<text x="1822" y="1996" fill="black" stroke-width="0">scale_out_OBUF[26]_inst</text>
<text x="1822" y="2024" fill="black" stroke-width="0" dy="7.7">OBUF</text>
<path d="M1860 2010h-10" />
<text x="1852" y="2009" fill="black" stroke-width="0" font-size="10">O</text>
<path d="M1810 2010h10" />
<text x="1818" y="2009" fill="black" stroke-width="0" font-size="10" text-anchor="end">I</text>
<path d="M1820 2080v-12l30 12l-30 12z" stroke="none" fill="#ffffcc" />
<path d="M1820 2080v-12l30 12l-30 12z" />
<text x="1822" y="2066" fill="black" stroke-width="0">scale_out_OBUF[27]_inst</text>
<text x="1822" y="2094" fill="black" stroke-width="0" dy="7.7">OBUF</text>
<path d="M1860 2080h-10" />
<text x="1852" y="2079" fill="black" stroke-width="0" font-size="10">O</text>
<path d="M1810 2080h10" />
<text x="1818" y="2079" fill="black" stroke-width="0" font-size="10" text-anchor="end">I</text>
<path d="M1820 2150v-12l30 12l-30 12z" stroke="none" fill="#ffffcc" />
<path d="M1820 2150v-12l30 12l-30 12z" />
<text x="1822" y="2136" fill="black" stroke-width="0">scale_out_OBUF[28]_inst</text>
<text x="1822" y="2164" fill="black" stroke-width="0" dy="7.7">OBUF</text>
<path d="M1860 2150h-10" />
<text x="1852" y="2149" fill="black" stroke-width="0" font-size="10">O</text>
<path d="M1810 2150h10" />
<text x="1818" y="2149" fill="black" stroke-width="0" font-size="10" text-anchor="end">I</text>
<path d="M1820 2220v-12l30 12l-30 12z" stroke="none" fill="#ffffcc" />
<path d="M1820 2220v-12l30 12l-30 12z" />
<text x="1822" y="2206" fill="black" stroke-width="0">scale_out_OBUF[29]_inst</text>
<text x="1822" y="2234" fill="black" stroke-width="0" dy="7.7">OBUF</text>
<path d="M1860 2220h-10" />
<text x="1852" y="2219" fill="black" stroke-width="0" font-size="10">O</text>
<path d="M1810 2220h10" />
<text x="1818" y="2219" fill="black" stroke-width="0" font-size="10" text-anchor="end">I</text>
<path d="M1820 2290v-12l30 12l-30 12z" stroke="none" fill="#ffffcc" />
<path d="M1820 2290v-12l30 12l-30 12z" />
<text x="1822" y="2276" fill="black" stroke-width="0">scale_out_OBUF[30]_inst</text>
<text x="1822" y="2304" fill="black" stroke-width="0" dy="7.7">OBUF</text>
<path d="M1860 2290h-10" />
<text x="1852" y="2289" fill="black" stroke-width="0" font-size="10">O</text>
<path d="M1810 2290h10" />
<text x="1818" y="2289" fill="black" stroke-width="0" font-size="10" text-anchor="end">I</text>
<path d="M1820 2360v-12l30 12l-30 12z" stroke="none" fill="#ffffcc" />
<path d="M1820 2360v-12l30 12l-30 12z" />
<text x="1822" y="2346" fill="black" stroke-width="0">scale_out_OBUF[31]_inst</text>
<text x="1822" y="2374" fill="black" stroke-width="0" dy="7.7">OBUF</text>
<path d="M1860 2360h-10" />
<text x="1852" y="2359" fill="black" stroke-width="0" font-size="10">O</text>
<path d="M1810 2360h10" />
<text x="1818" y="2359" fill="black" stroke-width="0" font-size="10" text-anchor="end">I</text>
<path d="M1772 2400h16" />
<path d="M1775 2403h10" />
<path d="M1778 2406h4" />
<path d="M2030 890v-7h14l7 7l-7 7h-14z" />
<text x="2055" y="890" fill="black" stroke-width="0" dy="3.85">ro_div</text>
</g>
<g stroke="black" stroke-width="3">
<path d="M2030 920v-7h14l7 7l-7 7h-14z" />
<text x="2055" y="920" fill="black" stroke-width="0" dy="3.85">scale_out[31:0]</text>
</g>
<g>
<path d="M1810 960h-30v70" />
<path d="M1780 1030v1370" />
<path d="M1780 1030h30" />
<path d="M1780 1100h30" />
<path d="M1780 1170h30" />
<path d="M1780 1240h30" />
<path d="M1780 1310h30" />
<path d="M1780 1380h30" />
<path d="M1780 1450h30" />
<path d="M1780 1520h30" />
<path d="M1780 1590h30" />
<path d="M1780 1660h30" />
<path d="M1780 1730h30" />
<path d="M1780 1800h30" />
<path d="M1780 1870h30" />
<path d="M1780 1940h30" />
<path d="M1780 2010h30" />
<path d="M1780 2080h30" />
<path d="M1780 2150h30" />
<path d="M1780 2220h30" />
<path d="M1780 2290h30" />
<path d="M1780 2360h30" />
<path d="M1778 1028h5v5h-5z" stroke="none" fill="#19b400" />
<path d="M1778 1098h5v5h-5z" stroke="none" fill="#19b400" />
<path d="M1778 1168h5v5h-5z" stroke="none" fill="#19b400" />
<path d="M1778 1238h5v5h-5z" stroke="none" fill="#19b400" />
<path d="M1778 1308h5v5h-5z" stroke="none" fill="#19b400" />
<path d="M1778 1378h5v5h-5z" stroke="none" fill="#19b400" />
<path d="M1778 1448h5v5h-5z" stroke="none" fill="#19b400" />
<path d="M1778 1518h5v5h-5z" stroke="none" fill="#19b400" />
<path d="M1778 1588h5v5h-5z" stroke="none" fill="#19b400" />
<path d="M1778 1658h5v5h-5z" stroke="none" fill="#19b400" />
<path d="M1778 1728h5v5h-5z" stroke="none" fill="#19b400" />
<path d="M1778 1798h5v5h-5z" stroke="none" fill="#19b400" />
<path d="M1778 1868h5v5h-5z" stroke="none" fill="#19b400" />
<path d="M1778 1938h5v5h-5z" stroke="none" fill="#19b400" />
<path d="M1778 2008h5v5h-5z" stroke="none" fill="#19b400" />
<path d="M1778 2078h5v5h-5z" stroke="none" fill="#19b400" />
<path d="M1778 2148h5v5h-5z" stroke="none" fill="#19b400" />
<path d="M1778 2218h5v5h-5z" stroke="none" fill="#19b400" />
<path d="M1778 2288h5v5h-5z" stroke="none" fill="#19b400" />
<path d="M1778 2358h5v5h-5z" stroke="none" fill="#19b400" />
<path d="M1810 730h-30v40" />
<path d="M1810 570h-30v40" />
<path d="M1810 410h-30v40" />
<path d="M1810 40h-30v250" />
<path d="M1780 110h30" />
<path d="M1780 180h30" />
<path d="M1780 250h30" />
<path d="M1778 108h5v5h-5z" stroke="none" fill="#19b400" />
<path d="M1778 178h5v5h-5z" stroke="none" fill="#19b400" />
<path d="M1778 248h5v5h-5z" stroke="none" fill="#19b400" />
</g>
<g stroke="green" stroke-width="3">
<path d="M130 450h390" />
<path d="M520 447v216" />
</g>
<g>
<path d="M520 450h100" />
<path d="M520 520h100" />
<path d="M520 590h100" />
<path d="M520 660h100" />
</g>
<g stroke="black" stroke-width="3">
<path d="M519 445v10l11 -5" stroke="none" fill="black" />
<path d="M519 515v10l11 -5" stroke="none" fill="black" />
<path d="M519 585v10l11 -5" stroke="none" fill="black" />
<path d="M519 655v10l11 -5" stroke="none" fill="black" />
</g>
<g stroke="green" stroke-width="3">
<path d="M2010 37v993" />
<path d="M2010 1030v1333" />
<path d="M2010 920h20" />
<path d="M2007 917h7v7h-7z" stroke="none" fill="green" />
</g>
<g>
<path d="M1860 40h150" />
<path d="M1860 110h150" />
<path d="M1860 180h150" />
<path d="M1860 250h150" />
<path d="M1860 340h150" />
<path d="M1860 410h150" />
<path d="M1860 500h150" />
<path d="M1860 570h150" />
<path d="M1860 660h150" />
<path d="M1860 730h150" />
<path d="M1860 820h150" />
<path d="M1860 960h150" />
<path d="M1860 1030h150" />
<path d="M1860 1100h150" />
<path d="M1860 1170h150" />
<path d="M1860 1240h150" />
<path d="M1860 1310h150" />
<path d="M1860 1380h150" />
<path d="M1860 1450h150" />
<path d="M1860 1520h150" />
<path d="M1860 1590h150" />
<path d="M1860 1660h150" />
<path d="M1860 1730h150" />
<path d="M1860 1800h150" />
<path d="M1860 1870h150" />
<path d="M1860 1940h150" />
<path d="M1860 2010h150" />
<path d="M1860 2080h150" />
<path d="M1860 2150h150" />
<path d="M1860 2220h150" />
<path d="M1860 2290h150" />
<path d="M1860 2360h150" />
</g>
<g stroke="black" stroke-width="3">
<path d="M2011 35v10l-11 -5" stroke="none" fill="black" />
<path d="M2011 105v10l-11 -5" stroke="none" fill="black" />
<path d="M2011 175v10l-11 -5" stroke="none" fill="black" />
<path d="M2011 245v10l-11 -5" stroke="none" fill="black" />
<path d="M2011 335v10l-11 -5" stroke="none" fill="black" />
<path d="M2011 405v10l-11 -5" stroke="none" fill="black" />
<path d="M2011 495v10l-11 -5" stroke="none" fill="black" />
<path d="M2011 565v10l-11 -5" stroke="none" fill="black" />
<path d="M2011 655v10l-11 -5" stroke="none" fill="black" />
<path d="M2011 725v10l-11 -5" stroke="none" fill="black" />
<path d="M2011 815v10l-11 -5" stroke="none" fill="black" />
<path d="M2011 955v10l-11 -5" stroke="none" fill="black" />
<path d="M2011 1025v10l-11 -5" stroke="none" fill="black" />
<path d="M2011 1095v10l-11 -5" stroke="none" fill="black" />
<path d="M2011 1165v10l-11 -5" stroke="none" fill="black" />
<path d="M2011 1235v10l-11 -5" stroke="none" fill="black" />
<path d="M2011 1305v10l-11 -5" stroke="none" fill="black" />
<path d="M2011 1375v10l-11 -5" stroke="none" fill="black" />
<path d="M2011 1445v10l-11 -5" stroke="none" fill="black" />
<path d="M2011 1515v10l-11 -5" stroke="none" fill="black" />
<path d="M2011 1585v10l-11 -5" stroke="none" fill="black" />
<path d="M2011 1655v10l-11 -5" stroke="none" fill="black" />
<path d="M2011 1725v10l-11 -5" stroke="none" fill="black" />
<path d="M2011 1795v10l-11 -5" stroke="none" fill="black" />
<path d="M2011 1865v10l-11 -5" stroke="none" fill="black" />
<path d="M2011 1935v10l-11 -5" stroke="none" fill="black" />
<path d="M2011 2005v10l-11 -5" stroke="none" fill="black" />
<path d="M2011 2075v10l-11 -5" stroke="none" fill="black" />
<path d="M2011 2145v10l-11 -5" stroke="none" fill="black" />
<path d="M2011 2215v10l-11 -5" stroke="none" fill="black" />
<path d="M2011 2285v10l-11 -5" stroke="none" fill="black" />
<path d="M2011 2355v10l-11 -5" stroke="none" fill="black" />
</g>
<g>
<path d="M980 1010h-120v-640h620v410h120" />
<path d="M1480 370h120" />
<path d="M1480 500h120" />
<path d="M1480 650h120" />
<path d="M1478 368h5v5h-5z" stroke="none" fill="#19b400" />
<path d="M1478 498h5v5h-5z" stroke="none" fill="#19b400" />
<path d="M1478 648h5v5h-5z" stroke="none" fill="#19b400" />
<path d="M860 880h120" />
<path d="M860 690h120" />
<path d="M860 490h120" />
<path d="M670 450h190" />
<path d="M858 878h5v5h-5z" stroke="none" fill="#19b400" />
<path d="M858 688h5v5h-5z" stroke="none" fill="#19b400" />
<path d="M858 488h5v5h-5z" stroke="none" fill="#19b400" />
<path d="M858 448h5v5h-5z" stroke="none" fill="#19b400" />
<path d="M980 990h-160v-600h640v370h140" />
<path d="M1460 390h140" />
<path d="M1460 520h140" />
<path d="M1460 630h140" />
<path d="M1458 388h5v5h-5z" stroke="none" fill="#19b400" />
<path d="M1458 518h5v5h-5z" stroke="none" fill="#19b400" />
<path d="M1458 628h5v5h-5z" stroke="none" fill="#19b400" />
<path d="M820 860h160" />
<path d="M820 710h160" />
<path d="M670 520h150" />
<path d="M820 470h160" />
<path d="M818 858h5v5h-5z" stroke="none" fill="#19b400" />
<path d="M818 708h5v5h-5z" stroke="none" fill="#19b400" />
<path d="M818 518h5v5h-5z" stroke="none" fill="#19b400" />
<path d="M818 468h5v5h-5z" stroke="none" fill="#19b400" />
<path d="M980 530h-60v520h60" />
<path d="M920 570h580" />
<path d="M1500 610h100" />
<path d="M1498 538h5v5h-5z" stroke="none" fill="#19b400" />
<path d="M1498 568h5v5h-5z" stroke="none" fill="#19b400" />
<path d="M1498 608h5v5h-5z" stroke="none" fill="#19b400" />
<path d="M670 590h250" />
<path d="M920 670h60" />
<path d="M920 840h60" />
<path d="M918 568h5v5h-5z" stroke="none" fill="#19b400" />
<path d="M918 588h5v5h-5z" stroke="none" fill="#19b400" />
<path d="M918 668h5v5h-5z" stroke="none" fill="#19b400" />
<path d="M918 838h5v5h-5z" stroke="none" fill="#19b400" />
<path d="M1600 410h-100v390h100" />
<path d="M1500 540h100" />
<path d="M980 950h-100v-600h640v390h80" />
<path d="M1520 350h80" />
<path d="M1520 480h80" />
<path d="M1520 670h80" />
<path d="M1518 348h5v5h-5z" stroke="none" fill="#19b400" />
<path d="M1518 478h5v5h-5z" stroke="none" fill="#19b400" />
<path d="M1518 668h5v5h-5z" stroke="none" fill="#19b400" />
<path d="M880 780h100" />
<path d="M670 660h210" />
<path d="M880 610h100" />
<path d="M880 430h100" />
<path d="M878 778h5v5h-5z" stroke="none" fill="#19b400" />
<path d="M878 658h5v5h-5z" stroke="none" fill="#19b400" />
<path d="M878 608h5v5h-5z" stroke="none" fill="#19b400" />
<path d="M878 428h5v5h-5z" stroke="none" fill="#19b400" />
<path d="M1860 890h170" />
<path d="M1660 890h150" />
<path d="M1320 640h120v240h160" />
<path d="M1320 900h280" />
<path d="M1060 470h60v160h140" />
<path d="M1060 650h200" />
<path d="M1060 820h60v70h140" />
<path d="M1060 990h100v-80h100" />
<path d="M130 940h30" />
<path d="M210 940h100" />
<path d="M360 940h160v170h100" />
<path d="M520 940h280v210h180" />
<path d="M800 1090h320v100h140" />
<path d="M520 1000h100" />
<path d="M518 938h5v5h-5z" stroke="none" fill="#19b400" />
<path d="M518 998h5v5h-5z" stroke="none" fill="#19b400" />
<path d="M798 1088h5v5h-5z" stroke="none" fill="#19b400" />
<path d="M980 510h-140v520h140" />
<path d="M840 630h140" />
<path d="M840 800h140" />
<path d="M700 1000h140" />
<path d="M838 628h5v5h-5z" stroke="none" fill="#19b400" />
<path d="M838 798h5v5h-5z" stroke="none" fill="#19b400" />
<path d="M838 998h5v5h-5z" stroke="none" fill="#19b400" />
<path d="M700 1110h200v-660h80" />
<path d="M900 970h80" />
<path d="M900 820h80" />
<path d="M900 650h80" />
<path d="M898 968h5v5h-5z" stroke="none" fill="#19b400" />
<path d="M898 818h5v5h-5z" stroke="none" fill="#19b400" />
<path d="M898 648h5v5h-5z" stroke="none" fill="#19b400" />
<path d="M1340 1190h140v-240h150v-30" />
<path d="M1060 1150h80v-450h150v-30" />
<path d="M1140 960h150v-30" />
<path d="M1138 958h5v5h-5z" stroke="none" fill="#19b400" />
<path d="M130 1020h180" />
<path d="M360 1020h140v150h380v40h380" />
<path d="M500 1020h120" />
<path d="M500 1130h120" />
<path d="M498 1018h5v5h-5z" stroke="none" fill="#19b400" />
<path d="M498 1128h5v5h-5z" stroke="none" fill="#19b400" />
<path d="M880 1170h100" />
<path d="M878 1168h5v5h-5z" stroke="none" fill="#19b400" />
<path d="M1680 370h80v-30h50" />
<path d="M1680 500h130" />
<path d="M1680 630h80v30h50" />
<path d="M1680 760h80v60h50" />
<text x="526" y="449" fill="black" stroke-width="0" font-size="8">0</text>
<text x="526" y="519" fill="black" stroke-width="0" font-size="8">1</text>
<text x="526" y="589" fill="black" stroke-width="0" font-size="8">2</text>
<text x="526" y="659" fill="black" stroke-width="0" font-size="8">3</text>
<text x="2005" y="39" fill="black" stroke-width="0" font-size="8" text-anchor="end">0</text>
<text x="2005" y="109" fill="black" stroke-width="0" font-size="8" text-anchor="end">1</text>
<text x="2005" y="179" fill="black" stroke-width="0" font-size="8" text-anchor="end">2</text>
<text x="2005" y="249" fill="black" stroke-width="0" font-size="8" text-anchor="end">3</text>
<text x="2005" y="339" fill="black" stroke-width="0" font-size="8" text-anchor="end">4</text>
<text x="2005" y="409" fill="black" stroke-width="0" font-size="8" text-anchor="end">5</text>
<text x="2005" y="499" fill="black" stroke-width="0" font-size="8" text-anchor="end">6</text>
<text x="2005" y="569" fill="black" stroke-width="0" font-size="8" text-anchor="end">7</text>
<text x="2005" y="659" fill="black" stroke-width="0" font-size="8" text-anchor="end">8</text>
<text x="2005" y="729" fill="black" stroke-width="0" font-size="8" text-anchor="end">9</text>
<text x="2005" y="819" fill="black" stroke-width="0" font-size="8" text-anchor="end">10</text>
<text x="2005" y="959" fill="black" stroke-width="0" font-size="8" text-anchor="end">11</text>
<text x="2005" y="1029" fill="black" stroke-width="0" font-size="8" text-anchor="end">12</text>
<text x="2005" y="1099" fill="black" stroke-width="0" font-size="8" text-anchor="end">13</text>
<text x="2005" y="1169" fill="black" stroke-width="0" font-size="8" text-anchor="end">14</text>
<text x="2005" y="1239" fill="black" stroke-width="0" font-size="8" text-anchor="end">15</text>
<text x="2005" y="1309" fill="black" stroke-width="0" font-size="8" text-anchor="end">16</text>
<text x="2005" y="1379" fill="black" stroke-width="0" font-size="8" text-anchor="end">17</text>
<text x="2005" y="1449" fill="black" stroke-width="0" font-size="8" text-anchor="end">18</text>
<text x="2005" y="1519" fill="black" stroke-width="0" font-size="8" text-anchor="end">19</text>
<text x="2005" y="1589" fill="black" stroke-width="0" font-size="8" text-anchor="end">20</text>
<text x="2005" y="1659" fill="black" stroke-width="0" font-size="8" text-anchor="end">21</text>
<text x="2005" y="1729" fill="black" stroke-width="0" font-size="8" text-anchor="end">22</text>
<text x="2005" y="1799" fill="black" stroke-width="0" font-size="8" text-anchor="end">23</text>
<text x="2005" y="1869" fill="black" stroke-width="0" font-size="8" text-anchor="end">24</text>
<text x="2005" y="1939" fill="black" stroke-width="0" font-size="8" text-anchor="end">25</text>
<text x="2005" y="2009" fill="black" stroke-width="0" font-size="8" text-anchor="end">26</text>
<text x="2005" y="2079" fill="black" stroke-width="0" font-size="8" text-anchor="end">27</text>
<text x="2005" y="2149" fill="black" stroke-width="0" font-size="8" text-anchor="end">28</text>
<text x="2005" y="2219" fill="black" stroke-width="0" font-size="8" text-anchor="end">29</text>
<text x="2005" y="2289" fill="black" stroke-width="0" font-size="8" text-anchor="end">30</text>
<text x="2005" y="2359" fill="black" stroke-width="0" font-size="8" text-anchor="end">31</text>
</g>
</g>
</svg>
